<svg xmlns="http://www.w3.org/2000/svg" width="39" height="32"><path d="M39 3.787a16.144 16.144 0 0 1-4.6 1.274A8.117 8.117 0 0 0 37.924.59a16.02 16.02 0 0 1-5.084 1.963A7.959 7.959 0 0 0 26.993 0a8.043 8.043 0 0 0-8.006 8.08 8.169 8.169 0 0 0 .207 1.845A22.67 22.67 0 0 1 2.689 1.477 8.1 8.1 0 0 0 1.6 5.537c0 2.805 2.3 5.275 4.449 6.728-1.313-.043-2.739-.407-2.739-1.016v.11c0 3.911 1.874 7.174 5.537 7.92a11.713 11.713 0 0 1-2.554.285 10.531 10.531 0 0 1-1.729-.148 7.88 7.88 0 0 0 7.369 5.61 16.148 16.148 0 0 1-10 3.462A16.844 16.844 0 0 1 0 28.375 22.526 22.526 0 0 0 12.259 32c14.732 0 22.78-12.312 22.78-22.989 0-.352-.016-.7-.031-1.048A16.32 16.32 0 0 0 39 3.787z" fill="#fff" fill-rule="evenodd"/></svg>