<svg xmlns="http://www.w3.org/2000/svg" width="44" height="37"><path d="M43.19 4.39L39.27 1.5a3.6 3.6 0 0 0-1.82-.6H6.55a3.6 3.6 0 0 0-1.82.6L.81 4.39A2.234 2.234 0 0 0 0 5.988v5.073a1 1 0 0 0 1.01 1h41.98a1 1 0 0 0 1.01-1V5.988a2.234 2.234 0 0 0-.81-1.598zM2 35c0 .894 2.1 2 3 2h35a2.341 2.341 0 0 0 2-2V15H2v20zm23.665-16A3.937 3.937 0 0 0 22 21.826 3.937 3.937 0 0 0 18.335 19C16.457 19 15 20.5 15 22.945c0 3.345 3.217 4.8 5.41 5.982A4.371 4.371 0 0 1 22 30a4.372 4.372 0 0 1 1.59-1.073C25.782 27.746 29 26.29 29 22.945 29 20.5 27.543 19 25.665 19z" fill="#fff" fill-rule="evenodd"/></svg>